<svg viewBox="0 0 47 32" width="47" height="32" fill="none" xmlns="http://www.w3.org/2000/svg">
  <path d="M40.1914 16.2596L33.2218 28.5715L40.9542 28.6253L44.7642 21.7999L40.1914 16.2596Z" fill="#0C740E"/>
  <path d="M34.1459 3.33195L44.7646 21.7999L37.0699 21.7999L26.451 3.33195L34.1459 3.33195Z" fill="#3FCB42"/>
  <path d="M15.6057 21.6994L26.4505 3.33205L30.3003 10.0997L19.5251 28.5714L15.6057 21.6994Z" fill="#20A623"/>
  <path d="M37.0712 21.7991L26.451 3.33201L22.426 10.1029L33.2237 28.5707L37.0712 21.7991Z" fill="#20A623"/>
  <path d="M26.582 16.2596L19.6124 28.5715L27.3449 28.6253L31.1548 21.7999L26.582 16.2596Z" fill="#0C740E"/>
  <path d="M20.536 3.33198L31.1548 21.7999L23.4601 21.7999L12.8411 3.33198L20.536 3.33198Z" fill="#3FCB42"/>
  <path d="M13.0385 16.2596L5.91475 28.5715L13.7636 28.5715L17.0311 23.0311L13.0385 16.2596Z" fill="#0C740E"/>
  <path d="M1.99579 21.6995L12.8406 3.33211L16.6905 10.0998L5.91524 28.5714L1.99579 21.6995Z" fill="#20A623"/>
  <path d="M23.4608 21.7992L12.8406 3.33204L8.81568 10.1029L19.6133 28.5707L23.4608 21.7992Z" fill="#20A623"/>
</svg>
